<svg width="1280" height="832" viewBox="0 0 1280 832" fill="none" xmlns="http://www.w3.org/2000/svg">
<mask id="mask0_481_6373" style="mask-type:luminance" maskUnits="userSpaceOnUse" x="0" y="0" width="1280" height="832">
<path d="M1279.94 0.170898H0V832H1279.94V0.170898Z" fill="white"/>
</mask>
<g mask="url(#mask0_481_6373)">
<path d="M1279.94 0.170898H-145V832H1279.94V0.170898Z" fill="url(#paint0_linear_481_6373)"/>
<g style="mix-blend-mode:overlay" opacity="0.11">
<path d="M690.508 166.395C663.737 211.986 613.895 241.942 558.139 256.097C492.04 272.878 428.434 263.929 362.113 255.021C300.966 246.807 232.955 244.52 181.361 279.317C101.278 333.329 93.6304 437.971 20.3018 498.516C-15.9749 528.472 -65.3729 545.926 -115.235 546.406C-170.358 546.937 -240.114 525.928 -268.307 481.392C-295.682 438.147 -267.937 395.086 -277.66 350.815C-296.669 264.232 -433.219 269.377 -499.195 226.401C-530.721 205.866 -551.936 175.227 -566.469 143.261C-582.599 107.784 -591.382 68.2615 -580.464 31.2937C-562.376 -29.9462 -494.441 -52.8682 -428.279 -55.0676C-379.115 -56.7026 -330.238 -45.6223 -285.086 -28.5055C-245.155 -13.3679 -207.594 6.49516 -166.754 19.6443C-65.8984 52.1153 33.4584 10.6793 120.478 -33.874C232.186 -91.0676 347.559 -146.202 481.119 -126.526C583.177 -111.49 689.092 -56.5166 709.121 39.0475C717.595 79.4741 713.668 122.349 694.19 159.744C693.018 161.997 691.791 164.214 690.508 166.395Z" fill="white"/>
</g>
<g style="mix-blend-mode:overlay" opacity="0.11">
<path d="M1404.11 873.253C1377.34 918.843 1327.49 948.799 1271.74 962.953C1205.64 979.735 1142.03 970.786 1075.71 961.877C1014.57 953.664 946.553 951.376 894.96 986.173C814.876 1040.19 807.229 1144.83 733.9 1205.37C697.624 1235.33 648.219 1252.78 598.364 1253.26C543.24 1253.79 473.484 1232.78 445.292 1188.25C417.916 1145 445.662 1101.94 435.938 1057.67C426.346 1013.99 381.01 990.549 336.501 976.848C301.283 966.005 264.076 959.015 231.84 942.533C176.751 914.365 142.803 860.79 132.286 805.695C125.971 772.612 127.774 736.785 147.721 708.148C172.271 672.903 220.615 654.611 267.659 651.875C320.746 648.788 379.824 659.891 428.509 678.35C468.441 693.487 506 713.349 546.841 726.499C647.697 758.97 747.054 717.534 834.076 672.981C945.784 615.792 1061.16 560.654 1194.72 580.331C1296.78 595.366 1402.69 650.34 1422.72 745.904C1431.19 786.332 1427.27 829.206 1407.79 866.601C1406.62 868.854 1405.39 871.071 1404.11 873.253Z" fill="white"/>
</g>
<g style="mix-blend-mode:overlay" opacity="0.22">
<path d="M1475.54 856.824C1448.76 902.416 1398.92 932.37 1343.17 946.526C1277.07 963.307 1213.46 954.357 1147.14 945.448C1085.99 937.234 1017.98 934.947 966.388 969.746C886.305 1023.76 878.656 1128.4 805.329 1188.95C769.051 1218.9 719.648 1236.35 669.791 1236.83C614.669 1237.36 544.911 1216.36 516.719 1171.82C489.345 1128.57 517.089 1085.51 507.367 1041.24C488.355 954.662 351.806 959.807 285.826 916.828C254.301 896.293 233.085 865.654 218.558 833.689C202.428 798.212 193.643 758.691 204.562 721.721C222.649 660.482 290.584 637.562 356.747 635.361C405.912 633.726 454.788 644.805 499.94 661.923C539.87 677.062 577.431 696.924 618.272 710.073C719.128 742.55 818.485 701.108 905.505 656.554C1017.21 599.363 1132.59 544.225 1266.14 563.904C1368.2 578.939 1474.12 633.913 1494.15 729.478C1502.62 769.903 1498.69 812.777 1479.22 850.173C1478.04 852.425 1476.82 854.642 1475.54 856.824Z" fill="white"/>
</g>
<g style="mix-blend-mode:overlay" opacity="0.17">
<path d="M957.248 -18.5651C930.476 27.0273 880.635 56.9833 824.879 71.1373C758.78 87.9183 695.174 78.968 628.853 70.0612C567.705 61.8475 499.695 59.5602 448.101 94.3573C368.018 148.37 360.369 253.01 287.042 313.557C250.764 343.511 201.361 360.966 151.506 361.445C96.382 361.977 26.624 340.968 -1.56656 296.433C-28.942 253.188 -1.19647 210.125 -10.9203 165.856C-29.932 79.2724 -166.481 84.4179 -232.457 41.4413C-263.98 20.9047 -285.198 -9.73422 -299.725 -41.6981C-315.859 -77.1762 -324.645 -116.698 -313.725 -153.667C-295.639 -214.903 -227.702 -237.827 -161.539 -240.028C-112.375 -241.663 -63.4976 -230.583 -18.3475 -213.466C21.5849 -198.326 59.144 -178.464 99.985 -165.314C200.845 -132.844 300.197 -174.283 387.217 -218.833C498.926 -276.027 614.298 -331.163 747.859 -311.486C849.917 -296.45 955.831 -241.477 975.861 -145.912C984.335 -105.485 980.406 -62.6123 960.93 -25.2151C959.756 -22.9624 958.529 -20.7457 957.248 -18.5651Z" fill="white"/>
</g>
<g style="mix-blend-mode:color-burn" opacity="0.15">
<path d="M660.774 412.856C665.884 373.499 692.408 340.186 728.071 317.004C770.351 289.523 818.809 281.334 869.202 272.492C915.666 264.338 965.223 250.285 991.505 213.046C1032.3 155.242 1005.38 77.3413 1039.3 16.343C1056.08 -13.8342 1086.16 -37.9489 1121.82 -49.8147C1161.25 -62.9389 1217.86 -63.7726 1251.9 -37.8851C1284.96 -12.747 1278.37 24.9944 1299.06 54.9587C1339.53 113.562 1436.02 78.2648 1496.72 94.2897C1525.72 101.946 1550.44 119.336 1570.78 139.233C1593.36 161.318 1611.91 188.044 1615.51 217.465C1621.49 266.201 1579.79 298.575 1532.95 315.465C1498.14 328.015 1459.6 331.248 1421.87 329.228C1388.5 327.442 1355.37 321.669 1321.97 321.539C1239.47 321.22 1180.94 374.327 1132.23 426.85C1069.71 494.276 1003.92 561.05 901.891 577.597C823.93 590.241 730.828 574.719 686.845 509.817C668.239 482.362 657.782 450.259 660.191 418.549C660.335 416.637 660.53 414.739 660.774 412.856Z" fill="#912BD7"/>
</g>
<g style="mix-blend-mode:overlay" opacity="0.17">
<path d="M696.582 265.795C717.298 265.795 734.091 251.089 734.091 232.95C734.091 214.81 717.298 200.105 696.582 200.105C675.867 200.105 659.073 214.81 659.073 232.95C659.073 251.089 675.867 265.795 696.582 265.795Z" fill="white"/>
</g>
<g style="mix-blend-mode:overlay" opacity="0.17">
<path d="M759.4 140.788C761.059 131.836 770.692 125.756 780.914 127.209C791.136 128.661 798.084 137.093 796.425 146.046C794.766 155 785.132 161.078 774.908 159.625C764.685 158.172 757.741 149.736 759.4 140.788Z" fill="white"/>
</g>
<g style="mix-blend-mode:overlay" opacity="0.17">
<path d="M305.492 566.977C307.375 558.058 317.159 552.165 327.344 553.814C337.529 555.463 344.254 564.029 342.372 572.947C340.49 581.866 330.705 587.759 320.519 586.11C310.333 584.461 303.605 575.894 305.492 566.977Z" fill="white"/>
</g>
<g style="mix-blend-mode:overlay" opacity="0.17">
<path d="M260.464 673.361C281.18 673.361 297.973 658.656 297.973 640.517C297.973 622.377 281.18 607.672 260.464 607.672C239.748 607.672 222.955 622.377 222.955 640.517C222.955 658.656 239.748 673.361 260.464 673.361Z" fill="white"/>
</g>
<g style="mix-blend-mode:overlay" opacity="0.17">
<path d="M-181.772 411.406C-175.392 365.997 -128.182 333.711 -76.3252 339.294C-24.4687 344.876 12.3967 386.211 6.01728 431.621C-0.362145 477.03 -47.5729 509.314 -99.4295 503.733C-151.286 498.151 -188.152 456.814 -181.772 411.406Z" fill="white"/>
</g>
<g style="mix-blend-mode:overlay" opacity="0.17">
<path d="M1185.17 149.2C1191.6 103.774 1238.87 71.5112 1290.74 77.1418C1342.62 82.7723 1379.47 124.161 1373.04 169.589C1366.61 215.017 1319.34 247.277 1267.46 241.648C1215.58 236.018 1178.74 194.626 1185.17 149.2Z" fill="white"/>
</g>
</g>
<defs>
<linearGradient id="paint0_linear_481_6373" x1="-145" y1="416.085" x2="1279.94" y2="416.085" gradientUnits="userSpaceOnUse">
<stop stop-color="#43349B"/>
<stop offset="0.136" stop-color="#3C45A0"/>
<stop offset="0.408" stop-color="#2973AE"/>
<stop offset="0.786" stop-color="#0CBCC4"/>
<stop offset="0.945" stop-color="#00DDCF"/>
</linearGradient>
</defs>
</svg>
